<?xml version="1.0" encoding="utf-8"?>
<!-- Generator: Adobe Illustrator 19.2.0, SVG Export Plug-In . SVG Version: 6.00 Build 0)  -->
<svg version="1.1" id="Capa_1" xmlns="http://www.w3.org/2000/svg" xmlns:xlink="http://www.w3.org/1999/xlink" x="0px" y="0px"
	 viewBox="0 0 58.2 49.6" style="enable-background:new 0 0 58.2 49.6;" xml:space="preserve">
<style type="text/css">
	.st0{fill:#FDFFFF;}
	.st1{fill:none;}
	.st2{fill:#FFFFFF;}
	.st3{font-family:'MyriadPro-Cond';}
	.st4{font-size:6.1498px;}
</style>
<g>
	<path class="st0" d="M40.6,21.6c-0.5-0.5-1.5-0.7-3.1-0.7c-1.1,0-2.4,0.1-3.8,0.3c-0.6-0.4-1.2-0.7-1.7-1.2c-1.3-1.2-2.5-3-3.1-4.9
		c0-0.2,0.1-0.3,0.1-0.5c0,0,0.8-4.3,0.6-5.7c0-0.2,0-0.3-0.1-0.4l-0.1-0.2c-0.2-0.5-0.6-1-1.2-0.9l-0.4,0l0,0
		c-0.7,0-1.3,0.4-1.4,0.9c-0.5,1.7,0,4.2,0.9,7.5l-0.2,0.5c-0.6,1.5-1.4,3-2.1,4.3l-0.1,0.2c-0.7,1.4-1.4,2.6-1.9,3.6l-0.6,0.3
		c0,0-1.1,0.6-1.3,0.7c-2.1,1.2-3.4,2.6-3.7,3.7c-0.1,0.4,0,0.8,0.3,1l0.6,0.3c0.3,0.1,0.5,0.2,0.8,0.2c1.5,0,3.2-1.8,5.5-5.9
		c2.7-0.9,5.8-1.6,8.5-2c2.1,1.2,4.6,2,6.2,2c0.3,0,0.5,0,0.7-0.1c0.3-0.1,0.6-0.3,0.7-0.5c0.3-0.5,0.4-1.1,0.3-1.8
		C40.9,22,40.8,21.7,40.6,21.6z M18.7,29.4c0.3-0.7,1.3-2.2,2.9-3.5c0.1-0.1,0.3-0.3,0.6-0.5C20.5,28,19.4,29,18.7,29.4z M27.9,8
		c0.5,0,0.7,1.2,0.8,2.3c0,1.1-0.2,1.9-0.6,2.5c-0.3-0.9-0.4-2.2-0.4-3.1C27.8,9.7,27.7,8,27.9,8z M25.2,23.2c0.3-0.6,0.7-1.2,1-1.9
		c0.9-1.6,1.4-2.9,1.8-3.9c0.8,1.4,1.8,2.7,3,3.7c0.1,0.1,0.3,0.2,0.5,0.4C29,22,27,22.5,25.2,23.2z M40.1,23.1
		c-0.1,0.1-0.6,0.1-0.8,0.1c-0.9,0-1.9-0.4-3.4-1c0.6,0,1.1-0.1,1.6-0.1c0.9,0,1.1,0,2,0.2S40.3,23,40.1,23.1z M42.7,8l-5-5
		c-1.1-1.1-3.2-2-4.7-2H16.3c-1.5,0-2.8,1.3-2.8,2.8v30c0,1.5,1.3,2.8,2.8,2.8h25.6c1.5,0,2.8-1.3,2.8-2.8V12.7
		C44.7,11.2,43.8,9.1,42.7,8z M41.2,9.6c0.1,0.1,0.2,0.2,0.3,0.4h-5.7V4.3c0.2,0.1,0.3,0.2,0.4,0.3L41.2,9.6z M42.5,33.9
		c0,0.3-0.3,0.6-0.6,0.6H16.3c-0.3,0-0.6-0.3-0.6-0.6v-30c0-0.3,0.3-0.6,0.6-0.6H33c0.2,0,0.4,0,0.6,0.1v8.8h8.8
		c0,0.2,0.1,0.4,0.1,0.6V33.9z"/>
</g>
<rect y="43.2" class="st1" width="58.2" height="6.5"/>
<text transform="matrix(1 0 0 1 11.4811 47.4085)" class="st2 st3 st4">Download Resume</text>
</svg>
