<svg id="Capa_1" data-name="Capa 1" xmlns="http://www.w3.org/2000/svg" viewBox="0 0 58.23 48.58"><defs><style>.cls-1{fill:#fdffff;}.cls-2{font-size:6.15px;fill:#fff;font-family:Myriad Pro;}</style></defs><title>pdflogo</title><path class="cls-1" d="M40.59,21.56c-0.47-.47-1.53-0.72-3.13-0.74a25.92,25.92,0,0,0-3.76.28A9.56,9.56,0,0,1,32,19.89,12.75,12.75,0,0,1,28.81,15c0-.18.08-0.33,0.12-0.49a31.6,31.6,0,0,0,.55-5.73,1.67,1.67,0,0,0-.1-0.41L29.32,8.2a1.36,1.36,0,0,0-1.24-.95H27.7a1.4,1.4,0,0,0-1.43.9c-0.46,1.68,0,4.2.87,7.47l-0.22.53c-0.61,1.49-1.38,3-2.05,4.32l-0.09.17C24.07,22,23.43,23.2,22.84,24.2l-0.6.32s-1.08.57-1.32,0.72c-2.06,1.23-3.43,2.63-3.65,3.73a0.92,0.92,0,0,0,.35,1l0.58,0.29a1.76,1.76,0,0,0,.79.19c1.47,0,3.17-1.83,5.52-5.92a55,55,0,0,1,8.5-2,14.63,14.63,0,0,0,6.19,2,2.9,2.9,0,0,0,.73-0.08,1.24,1.24,0,0,0,.72-0.49,2.62,2.62,0,0,0,.29-1.77A1.18,1.18,0,0,0,40.59,21.56ZM18.67,29.36a10.23,10.23,0,0,1,2.89-3.46c0.1-.08.34-0.31,0.56-0.52C20.49,28,19.39,29,18.67,29.36ZM27.95,8c0.47,0,.74,1.19.76,2.3a4.72,4.72,0,0,1-.56,2.48,12.09,12.09,0,0,1-.4-3.09S27.73,8,27.95,8ZM25.18,23.23c0.33-.59.67-1.21,1-1.87A35.54,35.54,0,0,0,28,17.45a12.91,12.91,0,0,0,3,3.67l0.46,0.37A37.76,37.76,0,0,0,25.18,23.23Zm15-.13a2.13,2.13,0,0,1-.82.14,9.69,9.69,0,0,1-3.41-1c0.57,0,1.1-.06,1.57-0.06a6,6,0,0,1,2,.21C40.27,22.57,40.28,23,40.13,23.09ZM42.73,8l-5-5a7.74,7.74,0,0,0-4.75-2H16.32a2.79,2.79,0,0,0-2.78,2.78v30a2.79,2.79,0,0,0,2.78,2.78H41.91a2.79,2.79,0,0,0,2.78-2.78V12.74A7.74,7.74,0,0,0,42.73,8ZM41.15,9.57a2.94,2.94,0,0,1,.32.39H35.79V4.28a2.94,2.94,0,0,1,.39.32Zm1.32,24.32a0.56,0.56,0,0,1-.56.56H16.32a0.56,0.56,0,0,1-.56-0.56v-30a0.56,0.56,0,0,1,.56-0.56H33a3,3,0,0,1,.56.06v8.84h8.84a3,3,0,0,1,.06.56V33.88Z" transform="translate(0 -1.06)"/><text class="cls-2" transform="translate(11.48 46.35)">D<tspan x="2.79" y="0">o</tspan><tspan x="5.1" y="0">wnload Resume</tspan></text></svg>